<svg version="1.1" id="Capa_1" xmlns="http://www.w3.org/2000/svg" x="0" y="0" viewBox="0 0 480 480" style="enable-background:new 0 0 480 480" xml:space="preserve"><path d="M386.058 191.42c-5.602 0-11.091.495-16.426 1.44l-11.527-39.729-9.041-32.435h36.994c10.616 0 15.369 6.252 15.369 12.447 0 3.521-1.542 6.833-4.342 9.324-3.825 3.404-9.774 5.204-17.203 5.204v20c15.676 0 25.238-5.582 30.499-10.264 7.02-6.248 11.046-15.092 11.046-24.265 0-8.602-3.378-16.643-9.512-22.643-6.557-6.414-15.499-9.805-25.857-9.805h-63.332l12.58 45.13H184.828l-5.072-13.6h33.328v-20H132.54v20h25.87l8.347 22.382-30.417 46.938c-12.744-6.473-27.151-10.127-42.397-10.127C42.143 191.42 0 233.562 0 285.361s42.143 93.942 93.942 93.942c48.421 0 88.399-36.827 93.408-83.942h12.486c4.122 11.566 15.179 19.87 28.143 19.87 16.47 0 29.869-13.399 29.869-29.87a29.69 29.69 0 0 0-4.339-15.49l90.206-94.566 6.714 23.14c-34.182 14.064-58.312 47.722-58.312 86.917 0 51.8 42.142 93.942 93.941 93.942S480 337.161 480 285.361s-42.143-93.941-93.942-93.941zm-60.943-25.594-87.169 91.382a29.743 29.743 0 0 0-9.968-1.716c-.747 0-1.486.037-2.22.091l-33.473-89.757h132.83zm-149.654 12.125 31.979 85.752a29.94 29.94 0 0 0-7.605 11.658H187.35c-2.691-25.314-15.477-47.654-34.244-62.912l22.355-34.498zm-8.273 97.41h-54.849l29.807-45.998c13.354 11.512 22.555 27.697 25.042 45.998zm-73.246 83.943C53.17 359.304 20 326.133 20 285.361s33.17-73.941 73.942-73.941a73.475 73.475 0 0 1 31.439 7.036l-49.836 76.905h91.642c-4.898 36.057-35.867 63.943-73.245 63.943zm134.037-64.073c-5.442 0-9.87-4.428-9.87-9.87 0-5.441 4.428-9.869 9.87-9.869 5.441 0 9.869 4.428 9.869 9.869 0 5.443-4.428 9.87-9.869 9.87zm158.079 64.073c-40.771 0-73.941-33.171-73.941-73.942 0-30.089 18.076-56.02 43.93-67.552l20.408 70.338 19.207-5.572-20.413-70.357c3.53-.52 7.137-.798 10.81-.798 40.772 0 73.942 33.17 73.942 73.941s-33.171 73.942-73.943 73.942z"/></svg>