<?xml version="1.0" encoding="utf-8"?><!-- Uploaded to: SVG Repo, www.svgrepo.com, Generator: SVG Repo Mixer Tools -->
<svg fill="#000000" width="800px" height="800px" viewBox="-3.5 0 19 19" xmlns="http://www.w3.org/2000/svg" class="cf-icon-svg"><path d="M11.16 16.153a.477.477 0 0 1-.476.475H1.316a.477.477 0 0 1-.475-.475V3.046a.477.477 0 0 1 .475-.475h6.95l2.893 2.893zm-1.11-9.924H8.059a.575.575 0 0 1-.574-.574V3.679H1.95v11.84h8.102zm-1.519 4.198a.475.475 0 0 1-.475.475H6.475v1.582a.475.475 0 1 1-.95 0v-1.582H3.944a.475.475 0 0 1 0-.95h1.581v-1.58a.475.475 0 0 1 .95 0v1.58h1.581a.475.475 0 0 1 .475.475z"/></svg>