<?xml version="1.0" encoding="UTF-8"?>
<svg viewBox="0 0 647.14508 641.63275" xmlns="http://www.w3.org/2000/svg">
 <g transform="translate(-55.208 -67.309)" fill-rule="evenodd">
  <path transform="matrix(.98802 0 0 .97872 3.289 3.4472)" d="m676.6 393.04a296.55 296.55 0 1 1 -593.1 0 296.55 296.55 0 1 1 593.1 0z" fill="#fff" stroke="#e71818" stroke-width="62.185"/>
  <path d="m310.47 522.81h133.88v6c-21.305 1.8062-45.135 2.9375-70.75 2.9375-22.525 0-43.801-0.83337-63.125-2.25v-6.6875zm0-21.125h133.88v10.156h-133.88v-10.156zm63.125-20.875c25.616 0 49.444 1.1351 70.75 2.9375v7.25h-133.88v-7.9375c19.325-1.4168 40.598-2.25 63.125-2.25zm102.31-16.031c9.2713 0 16.781 7.51 16.781 16.781s-7.51 16.812-16.781 16.812-16.812-7.5412-16.812-16.812 7.5412-16.781 16.812-16.781zm-197.22 0c9.2713 0 16.781 7.51 16.781 16.781s-7.51 16.812-16.781 16.812-16.812-7.5412-16.812-16.812 7.5412-16.781 16.812-16.781zm74.969-86.406c5.5814-0.01509 13.359 0.07681 23.75 0.28125 42.787-0.84094 35.867 0.625 54.5 0.625 4.7059 1e-5 9.9526 0.91869 14.031 2.125s8.3835 3.0943 11.469 5.25 7.4984 5.8042 8.7188 10.875c0 0 6.1279 23.833 6.5938 31 0.2006 3.2134-1.2426 5.0734-1.625 5.75-0.76489 1.3532-2.108 2.729-3.75 3.5312-2.2274 1.0261-2.6394 1.0544-5.5 1.375-2.1284 0.26184-4.9985 0.40625-7.2812 0.40625-9.5467-0.74623-41.048-2.0731-77.031-2.7188-36.249 0.66121-70.449 2.4698-80.031 3.2188-9.1308 0-16.523-6.6238-14.906-14.406l6.0312-28.156c1.091-5.1002 5.6335-8.7193 8.7188-10.875s7.3901-4.0437 11.469-5.25 9.3254-2.125 14.031-2.125c14.118 0 13.385-0.85913 30.812-0.90625zm-46.875-20.219c-4.155 0-8.1272 0.82969-11.719 2.3438s-6.82 3.695-9.5312 6.4062-5.6423 5.7092-6.4062 9.5312l-14.938 74.75c-10.298 0.83845-18.375 9.2916-18.375 19.812v57.531c0 8.0353 4.727 14.909 11.531 18.094v41.969c4.2022 6.2426 11.352 10.344 19.438 10.344 8.8852-1e-5 16.545-4.9844 20.5-12.281v-37.594c19.042 0.83637 38.743 1.3978 58.844 1.6875v0.03125c6.6449 0.06576 13.099 0.21875 19.844 0.21875h2.9688c6.7447 0 13.199-0.15299 19.844-0.21875v-0.0625c20.107-0.28955 39.797-0.81964 58.844-1.6562v37.594c3.9545 7.2969 11.615 12.281 20.5 12.281 8.0857-2e-5 15.235-4.0699 19.438-10.312v-42c6.8042-3.185 11.531-10.058 11.531-18.094v-57.531c0-10.521-8.0774-18.974-18.375-19.812l-14.938-74.75c-0.76392-3.8221-3.695-6.82-6.4062-9.5312s-5.9397-4.8922-9.5312-6.4062-7.5638-2.3438-11.719-2.3438h-141.34zm172.81-89.156c14.867 0.49068 26.781 12.608 26.781 27.594 1e-5 15.297-12.359 27.719-27.656 27.719s-27.75-12.422-27.75-27.719c1e-5 -9.7204 5.1054-18.207 12.688-23.156l3.25 11.594c-2.94 2.9885-4.75 7.0423-4.75 11.562 0 9.1384 7.4241 16.563 16.562 16.562s16.5-7.4241 16.5-16.562c0-7.6648-5.2376-14.055-12.312-15.938l-3.3125-11.656zm-190.56-0.125c1.9712 0 3.8956 0.26413 5.75 0.65625l-7.6875 10.719c-8.2228 0.96389-14.625 7.8635-14.625 16.344 0 9.1384 7.3929 16.563 16.531 16.562s16.562-7.4241 16.562-16.562c0-3.4019-1.0195-6.5566-2.7812-9.1875l6.7188-9.3438c4.4507 4.9199 7.2188 11.377 7.2188 18.531 1e-5 15.297-12.391 27.719-27.688 27.719s-27.719-12.422-27.719-27.719 12.422-27.719 27.719-27.719zm143.59-11.812 19.75 0.40625 0.125 3.2188c-8.7224 5.2734-14.546 14.159-18 26.969h-1.875v-30.594zm-44-37.344s1.2632 4.0444 4.0625 6.8438 6.6026 6.6295 7.875 6.375l-15.804 17.058-5.1652 0.25448-22.87-9.1071 0.10272-2.7546 31.799-18.67zm-6.9062-71.906c-9.6681 0-17.771 7.6753-17.938 18.344h3.875l0.08997 15.349c0.38561 4.3313 5.7301 7.4234 10.225 8.147l0.53985 0.75274c-0.07226 0.11396-0.01752 0.95092-0.07383 1.0635-1.7814 3.5628-11.714 18.067-11.969 19.594-1.0643 1.5269-8.1928 8.3158-10.738 10.606s-2.9943 2.8671-5.7936 2.6126c-2.3236-0.21125-4.5381 0.25189-5.4062-2.2812l11.031-43.594c0.86918-1.8024-1.1675-3.2911-2.875-3-0.56916 0.09705-1.0905 0.39312-1.4688 0.9375l-12 18.875c-8.6375 16.605-18.243 31.554-40.75 32.094l-10.781-0.125v18.688c7.4322 0 14.461 1.6918 20.844 4.5312l-3.6562 5.0312c-4.9348-1.9013-10.24-3.0938-15.844-3.0938-24.435 0-44.281 19.815-44.281 44.25s19.846 44.281 44.281 44.281 44.25-19.846 44.25-44.281c0-12.714-5.4434-24.084-14.031-32.156l3.375-4.6562c10.101 9.3996 16.531 22.688 16.531 37.562 0 0.88183 0.18584 2.4077 0.3125 3.7812-0.00542 0.17038-0.0625 0.35954-0.0625 0.53125 0 8.3772 6.5132 15.162 14.75 15.719v0.09375h85.75c7.4841 13.867 21.966 23.406 38.812 23.406 24.435 0 44.219-19.846 44.219-44.281 0-0.18062-0.02909-0.35117-0.03125-0.53125h10.406c0.02731-0.68932 0.09375-1.3665 0.09375-2.0625 0-22.158-13.985-40.98-33.594-48.312v-7.25c0-3.324-2.676-6-6-6l-44.634 0.25448c-0.62147-3.671-0.07443-6.4702-3.5537-11.192-3.5628-4.8352-22.156-23.938-22.156-23.938s-1.2587-1.2632-4.3125-4.0625-13.236-7.8883-21.125-8.9062c-0.61393-0.07922-1.9923-0.46003-1.9962-1.1971l0.08997-7.3966c2.2112-2.9371 3.5938-6.5692 3.5938-10.5 1e-5 -9.7612-8.0628-17.688-18-17.688z"/>
 </g>
</svg>
