<?xml version="1.0" encoding="utf-8"?>
<!DOCTYPE svg PUBLIC "-//W3C//DTD SVG 20010904//EN" "http://www.w3.org/TR/2001/REC-SVG-20010904/DTD/svg10.dtd">
<svg version="1.0" width="23" height="23" viewBox="0 0 173.25 172.5" preserveAspectRatio="xMidYMid meet" xmlns="http://www.w3.org/2000/svg">
  <circle cx="86.625" cy="86.25" r="86.25" fill="white"/>
  <g transform="translate(0,172.5)scale(.075,.075)" fill="#3589FF">
    <path id="path1" d="M 925 -2280 c -177 38 -321 101 -455 201 -194 144 -336 337 -409 555 -51 152 -64 249 -58 419 6 174 27 269 88 415 134 313 404 552 744 657 87 27 97 28 320 27 223 0 233 -1 320 -28 184 -56 337 -143 469 -267 429 -400 489 -1064 139 -1534 -179 -240 -436 -399 -727 -450 -122 -21 -317 -19 -431 5 z m 510 44 c 122 32 294 115 390 187 188 143 332 344 399 557 76 240 74 470 -5 707 -58 173 -150 316 -291 451 -170 162 -363 259 -596 299 -214 37 -473 -1 -664 -96 -332 -165 -561 -470 -624 -830 -22 -125 -15 -329 15 -449 50 -198 157 -386 301 -530 171 -171 366 -270 640 -324 14 -2 95 -3 180 -1 128 2 173 7 255 29 z M 1020 -2229 c -363 42 -700 287 -855 622 -299 646 88 1399 787 1532 103 19 303 19 406 0 450 -85 800 -446 872 -897 18 -112 9 -341 -18 -444 -116 -442 -486 -763 -935 -813 -108 -12 -149 -12 -257 0 z m 1005 793 c 60 25 66 51 63 263 l -3 186 -180 38 c -99 21 -186 38 -193 39 -7 0 -12 -12 -12 -28 0 -39 -20 -73 -59 -99 -40 -27 -71 -29 -115 -8 -40 19 -66 62 -66 109 l 0 36 -349 0 -348 0 -6 -46 c -3 -34 -13 -55 -34 -76 -75 -75 -203 -22 -203 84 l 0 33 -137 -3 c -78 -2 -143 -8 -150 -14 -18 -14 -18 -229 -1 -246 8 -8 14 -53 16 -125 1 -62 5 -122 8 -135 l 4 -22 866 0 c 725 0 870 2 899 14 z m -1350 418 c 29 13 55 55 55 88 0 33 -53 80 -90 80 -38 0 -90 -47 -90 -82 1 -32 23 -68 51 -84 30 -17 42 -17 74 -2 z m 940 0 c 29 13 55 55 55 88 0 33 -53 80 -90 80 -37 0 -90 -47 -90 -79 0 -36 19 -70 47 -85 34 -19 45 -19 78 -4 z M 334 -1347 c -2 7 -3 94 -2 192 l 3 180 55 0 55 0 3 -193 2 -192 -55 0 c -36 0 -57 5 -61 13 z M 532 -1278 l 3 83 154 3 c 107 2 158 -1 168 -9 10 -9 13 -31 11 -83 l -3 -71 -168 -3 -168 -2 3 82 z M 922 -1278 l 3 83 160 0 160 0 3 -83 3 -82 -166 0 -166 0 3 82 z M 1312 -1278 l 3 83 160 0 160 0 0 -80 0 -80 -163 -3 -163 -2 3 82 z M 1697 -1353 c -14 13 -8 140 7 152 9 8 63 11 167 9 l 154 -3 3 -62 c 2 -52 -1 -66 -18 -83 -18 -18 -32 -20 -163 -20 -79 0 -147 3 -150 7 z M 606 -974 c -20 19 -21 58 -2 73 25 21 69 9 80 -21 17 -50 -42 -89 -78 -52 z M 1548 -979 c -21 12 -24 59 -6 77 19 19 66 15 78 -7 14 -28 13 -38 -10 -61 -22 -22 -37 -24 -62 -9 z " />
  </g>
</svg>