<?xml version="1.0" encoding="iso-8859-1"?>
<!-- Uploaded to: SVG Repo, www.svgrepo.com, Generator: SVG Repo Mixer Tools -->
<svg version="1.1" id="Layer_1" xmlns="http://www.w3.org/2000/svg" xmlns:xlink="http://www.w3.org/1999/xlink" 
	 viewBox="0 0 512 512" xml:space="preserve">
<g>
	<path style="fill:#0E0A57;" d="M460.836,295.11c-4.661,0-8.44-3.779-8.44-8.44v-57.255c0-3.413-2.776-6.189-6.189-6.189H65.793
		c-3.413,0-6.189,2.776-6.189,6.189v57.255c0,4.661-3.779,8.44-8.44,8.44s-8.44-3.779-8.44-8.44v-57.255
		c0-12.72,10.348-23.068,23.068-23.068h380.415c12.72,0,23.068,10.348,23.068,23.068v57.255
		C469.276,291.331,465.497,295.11,460.836,295.11z"/>
	<rect x="376.022" y="453.204" style="fill:#0E0A57;" width="39.947" height="58.796"/>
	<rect x="96.031" y="453.204" style="fill:#0E0A57;" width="39.947" height="58.796"/>
</g>
<path style="fill:#E42105;" d="M376.588,0H135.412c-27.851,0-50.637,22.787-50.637,50.637v402.567
	c0,6.189,5.064,11.253,11.253,11.253h319.945c6.189,0,11.253-5.064,11.253-11.253V50.637C427.225,22.787,404.438,0,376.588,0z"/>
<rect x="101.657" y="50.637" style="fill:#FFFFFF;" width="308.697" height="96.627"/>
<path style="fill:#961300;" d="M299.469,421.697h-86.939c-4.661,0-8.44-3.779-8.44-8.44s3.779-8.44,8.44-8.44h86.94
	c4.661,0,8.44,3.779,8.44,8.44S304.13,421.697,299.469,421.697z"/>
<rect x="101.657" y="214.781" style="fill:#FFFFFF;" width="145.903" height="147.265"/>
<rect x="264.44" y="214.781" style="fill:#B8DDFF;" width="145.903" height="147.265"/>
<g>
	<circle style="fill:#FFD117;" cx="135.978" cy="413.257" r="17.442"/>
	<circle style="fill:#FFD117;" cx="376.022" cy="413.257" r="17.442"/>
</g>
<path style="fill:#FF7039;" d="M393.467,189.468H118.533c-4.661,0-8.44-3.779-8.44-8.44s3.779-8.44,8.44-8.44h274.934
	c4.661,0,8.44,3.779,8.44,8.44S398.128,189.468,393.467,189.468z"/>
</svg>