<?xml version="1.0" encoding="UTF-8" standalone="no"?>
<svg
   width="681"
   height="602.12"
   fill-rule="evenodd"
   version="1.1"
   id="svg12"
   sodipodi:docname="UK_traffic_sign_500.svg"
   inkscape:version="1.1.1 (3bf5ae0d25, 2021-09-20)"
   xmlns:inkscape="http://www.inkscape.org/namespaces/inkscape"
   xmlns:sodipodi="http://sodipodi.sourceforge.net/DTD/sodipodi-0.dtd"
   xmlns="http://www.w3.org/2000/svg"
   xmlns:svg="http://www.w3.org/2000/svg">
  <defs
     id="defs16" />
  <sodipodi:namedview
     id="namedview14"
     pagecolor="#ffffff"
     bordercolor="#111111"
     borderopacity="1"
     inkscape:pageshadow="0"
     inkscape:pageopacity="0"
     inkscape:pagecheckerboard="1"
     showgrid="false"
     inkscape:zoom="1.1941141"
     inkscape:cx="97.561863"
     inkscape:cy="172.0941"
     inkscape:window-width="1920"
     inkscape:window-height="1057"
     inkscape:window-x="-8"
     inkscape:window-y="-8"
     inkscape:window-maximized="1"
     inkscape:current-layer="svg12" />
  <path
     d="M46.019,601.088 7.048,533.588 301.529,23.532 379.471,23.532 673.952,533.588 634.981,601.088"
     fill="#e31017"
     stroke="none"
     id="path2" />
  <circle
     cx="340.5"
     cy="46.032"
     r="45"
     fill="#e31017"
     stroke="none"
     id="circle4" />
  <circle
     cx="634.981"
     cy="556.088"
     r="45"
     fill="#e31017"
     stroke="none"
     id="circle6" />
  <circle
     cx="46.019"
     cy="556.088"
     r="45"
     fill="#e31017"
     stroke="none"
     id="circle8" />
  <path
     d="M72,541.088 340.5,76.032 609,541.088"
     fill="#fff"
     stroke="none"
     id="path10" />
  <path
     d="m 485.49245,497.65534 c -2.69684,-0.81423 -12.39986,0.50744 -19.75929,-0.46176 -3.80078,-0.50042 -6.55068,-1.37474 -8.57902,-3.5602 -1.40413,-1.50968 -2.30143,-3.47444 -3.62329,-7.08769 -3.41244,-9.33571 -10.90015,-51.05682 -11.86282,-55.45409 -0.9567,-4.3941 -5.03481,-8.35385 -5.03481,-8.35385 6.59778,-2.31758 8.95826,-4.33471 8.95826,-4.33471 -5.61438,-9.0992 -20.03905,-33.87857 -25.84885,-62.52948 -2.48875,-12.2637 -1.43117,-19.09065 -1.43117,-19.09065 0,0 8.11086,16.09448 12.56186,21.14045 8.3281,9.4422 27.44805,15.3031 34.47464,18.33652 1.58583,0.62236 6.88424,5.3004 11.15388,5.3004 5.61473,0 9.35299,-4.52904 10.26012,-8.71616 1.96154,-9.07566 -7.29335,-9.57642 -11.93557,-9.9057 -2.05399,-0.149 -4.05173,-0.70564 -5.89521,-1.74161 -5.15957,-2.89426 -23.90697,-16.11627 -26.2214,-20.2303 -1.5528,-2.75263 -3.91291,-8.43572 -6.67336,-14.14588 -5.16028,-10.67776 -7.64903,-15.57579 -14.82639,-19.98325 -5.04467,-3.09562 -11.24949,-4.3087 -16.15566,-5.34081 l 0.3954,-5.5116 c 5.20668,-3.06294 13.09611,-10.18613 13.09611,-21.83661 0,-7.21632 -1.80692,-12.1741 -4.89667,-16.2846 -4.45067,-5.921 -11.50643,-9.31286 -19.23209,-9.37576 -6.74822,0 -12.59421,2.16928 -17.13766,6.56022 -7.60617,7.35759 -8.89571,18.79054 -9.05351,25.61117 -0.0791,3.31279 0.1578,5.49508 0.1578,5.49508 3.07642,4.01528 10.63619,7.46969 13.17205,8.4779 l -0.56026,5.64796 c 0,0 -5.76058,-0.16834 -10.31281,0.15145 -4.96242,0.34298 -7.86766,0.9432 -12.23326,3.19789 -12.63009,6.53738 -29.13898,20.64671 -34.5365,26.49427 -3.82785,4.14671 -4.35155,9.00257 -4.52026,11.61709 -0.64282,19.87888 6.58795,42.5262 6.58795,42.5262 -8.61874,1.94157 -13.95616,3.63224 -18.3351,4.90472 0,0 -7.16542,-22.52187 -13.3629,-32.7804 -6.195,-10.26239 -18.52598,-12.77853 -18.52598,-12.77853 l 2.00481,-5.48489 c 5.61718,-2.06386 15.40666,-9.3494 15.40666,-23.26055 0,-16.41673 -11.28218,-23.65905 -22.28495,-23.84705 -13.04655,-0.22105 -22.70038,8.93333 -23.27082,21.87561 -0.52088,11.92037 5.96129,18.27994 8.07082,19.81211 l -1.67123,4.71072 c 0,0 -7.24733,-0.3465 -10.70859,-0.28289 -5.96867,0.10543 -9.52027,0.40518 -14.78881,3.2007 -3.55793,1.88851 -9.60883,5.54182 -13.09682,7.8826 -5.96866,4.00789 -12.91441,9.24996 -16.21928,13.26804 -2.16927,2.53863 -4.07213,7.39695 -4.71672,9.24013 -3.78393,10.78705 -6.47408,24.8623 -6.61537,25.49309 -0.13883,0.63219 -2.00795,5.04633 -2.177,7.21315 -0.51947,6.6154 4.45242,10.812 9.89352,11.16131 8.84368,0.57 9.67315,-6.15117 9.67315,-10.63489 0,-0.50111 -0.0471,-2.46272 -0.0316,-4.18641 0.0144,-1.71772 0.5961,-3.62907 1.19008,-5.364 1.63539,-4.77258 5.55498,-14.74154 6.96754,-16.88763 1.75208,-2.66373 14.55893,-9.52723 14.55893,-9.52723 -0.62772,7.53891 -3.88936,26.53153 -4.46999,28.85508 -0.58133,2.32075 -9.2317,22.71269 -12.26559,29.36219 -2.80684,6.14485 -3.22685,6.70816 -7.16542,9.41828 -5.33707,3.67615 -34.93786,20.57046 -43.64553,24.52002 -7.85886,3.56335 -9.14313,3.97838 -6.91798,21.3116 1.29728,10.09476 2.76923,16.62863 4.34136,19.88871 1.21925,2.5316 2.65078,3.26359 5.03551,3.13498 2.69401,-0.14548 4.08935,-1.28583 4.82849,-3.66878 0.56481,-1.81647 3.28976,-13.02768 6.08394,-22.40063 8.90836,-5.03368 44.66901,-18.51996 51.51213,-24.0681 6.84241,-5.55166 20.65624,-29.1675 20.65624,-29.1675 0,0 20.00988,33.8118 21.94859,41.16729 1.08428,4.11718 8.32842,38.26633 9.55541,45.69 1.22206,7.42013 3.99903,10.06453 10.26011,8.70912 6.26425,-1.35471 29.32065,-9.84315 29.32065,-9.84315 0.9655,1.09466 2.22586,2.72593 3.7653,3.79424 1.544,1.07498 3.48833,1.49387 5.45306,0.43505 1.2702,-0.68244 2.37733,-1.94192 2.45325,-3.55667 0.0629,-1.36807 -0.32299,-3.08613 -0.88956,-5.3236 -0.97604,-3.84729 -1.93273,-9.44816 -2.38367,-15.40184 -0.39575,-5.19252 0.83332,-9.76725 3.5305,-14.30754 6.13211,-10.32493 23.49857,-21.74348 35.05106,-29.87594 11.55595,-8.13 13.62331,-10.77686 14.8503,-12.90644 1.22275,-2.12993 1.61182,-4.38777 1.61182,-4.38777 17.28388,2.49575 31.17715,-0.84059 31.17715,-0.84059 0,0 4.24084,4.10066 4.90651,4.72724 1.69409,1.59929 2.82231,2.67743 3.14812,4.93809 0.20524,1.44116 0.46816,10.78987 1.62203,16.02455 1.44454,6.56374 4.33257,15.09471 6.91447,20.51494 2.17243,4.55927 7.58648,17.11183 9.88156,23.26301 2.1229,5.70979 2.1229,10.61556 2.76959,13.67463 0.64248,3.04607 1.74682,5.16863 3.48411,6.48432 2.45715,1.86285 5.57854,1.13402 9.58846,0.15884 6.34615,-1.54622 17.15807,-5.10395 27.46139,-9.39896 4.90933,-2.04699 7.08563,-4.28235 7.08563,-7.08735 0,-1.35541 -0.68605,-3.47515 -3.00752,-4.17692 m -128.40072,-73.7667 -0.38591,1.54869 c 0,0 -12.00833,5.934 -20.33253,13.67744 -8.32878,7.74731 -12.65433,16.94175 -20.97958,24.97475 -2.11691,2.04068 -4.5143,4.02477 -6.13245,5.03439 -4.00641,2.49469 -6.13877,3.42173 -7.28035,6.27312 -0.83721,2.09654 -0.60629,4.93458 1.1377,9.33219 1.63856,4.13124 5.08086,11.2453 7.10812,14.78897 l -12.97343,-0.70916 c 0,0 -6.58515,-44.10793 -8.03882,-51.07755 -1.44981,-6.96821 -15.39403,-36.29806 -15.39403,-36.29806 0,0 0,-2.51473 9.19901,-29.715 0,0 9.19938,25.7795 15.26927,26.88013 5.61753,1.01911 14.74766,-1.13332 24.81656,-4.52237 5.62844,-1.89307 13.01985,-4.75359 17.58966,-7.25919 3.60785,-1.9746 4.7213,-4.0975 4.90055,-6.25766 0.10721,-1.31112 -0.14938,-2.9663 -0.79186,-4.22226 -0.79502,-1.54306 -1.7447,-3.21369 -2.51021,-4.62849 -0.76339,-1.41761 -1.06073,-2.18229 -1.12679,-4.37723 l -1.11066,-34.21207 c 5.86816,-3.5869 12.60757,-7.06521 23.6202,-13.83241 0,0 -1.03227,47.23587 -19.75226,88.79322 0,0 2.45219,3.09878 13.16781,5.80855"
     style="fill:#000000;fill-opacity:1;fill-rule:evenodd;stroke:none;stroke-width:0.351442"
     id="path146" />
</svg>
