<?xml version="1.0" encoding="iso-8859-1"?>
<!-- Generator: Adobe Illustrator 18.1.1, SVG Export Plug-In . SVG Version: 6.00 Build 0)  -->
<svg version="1.1" id="Capa_1" xmlns="http://www.w3.org/2000/svg" xmlns:xlink="http://www.w3.org/1999/xlink" x="0px" y="0px"
	 viewBox="0 0 17.537 17.537" style="enable-background:new 0 0 17.537 17.537;" xml:space="preserve">
<g>
	<g>
		<path style="fill:#030104;" d="M12.317,3.571H8.958H8.781H8.528H8.357H5.278c-1.061,0-1.92,0.67-1.92,1.497v7.142
			c0,0.81,0.825,1.468,1.855,1.494l-1.855,3.833h1.44l1.852-3.83h4.295l1.85,3.825h1.441l-1.852-3.828
			c1.027-0.028,1.852-0.686,1.852-1.494V5.068C14.237,4.242,13.377,3.571,12.317,3.571z M6.876,4.086h1.737L8.63,4.12l0.02-0.034
			h2.065v0.762H6.876C6.876,4.848,6.876,4.086,6.876,4.086z M5.995,12.477c-0.455,0-0.823-0.368-0.823-0.823
			c0-0.454,0.368-0.823,0.823-0.823s0.823,0.369,0.823,0.823C6.818,12.109,6.45,12.477,5.995,12.477z M11.721,12.477
			c-0.455,0-0.824-0.368-0.824-0.823c0-0.454,0.369-0.823,0.824-0.823c0.455,0,0.822,0.369,0.822,0.823
			C12.543,12.109,12.176,12.477,11.721,12.477z M12.928,7.739c0,0.826-0.859,1.496-1.918,1.496H6.584c-1.06,0-1.92-0.67-1.92-1.496
			V6.99c0-0.827,0.86-1.497,1.92-1.497h4.426c1.059,0,1.918,0.67,1.918,1.497V7.739z"/>
		<polygon style="fill:#030104;" points="6.696,1.288 6.696,2.992 10.897,2.992 10.897,1.288 10.319,1.288 10.319,2.539 
			7.275,2.539 7.275,1.288 		"/>
		<path style="fill:#030104;" d="M3.957,1.786C4,1.761,8.346-0.711,13.612,1.804c0.072,0.034,0.15,0.049,0.227,0.049
			c0.146,0,0.291-0.057,0.373-0.161c0.123-0.161,0.061-0.369-0.145-0.467C8.301-1.528,3.483,1.215,3.435,1.243
			c-0.191,0.112-0.23,0.325-0.086,0.475C3.492,1.868,3.765,1.898,3.957,1.786z"/>
	</g>
</g>
<g>
</g>
<g>
</g>
<g>
</g>
<g>
</g>
<g>
</g>
<g>
</g>
<g>
</g>
<g>
</g>
<g>
</g>
<g>
</g>
<g>
</g>
<g>
</g>
<g>
</g>
<g>
</g>
<g>
</g>
</svg>
