<?xml version="1.0" encoding="utf-8"?>
<!-- Generator: Adobe Illustrator 16.0.3, SVG Export Plug-In . SVG Version: 6.00 Build 0)  -->
<!DOCTYPE svg PUBLIC "-//W3C//DTD SVG 1.1//EN" "http://www.w3.org/Graphics/SVG/1.1/DTD/svg11.dtd">
<svg version="1.1" id="Layer_1" xmlns="http://www.w3.org/2000/svg" xmlns:xlink="http://www.w3.org/1999/xlink"
	 viewBox="0 0 175 444.971">
	<rect width="175" height="444.971"/>
	<path fill-rule="evenodd" clip-rule="evenodd" fill="#559534" d="M82.867,252.75c0-5.609,4.467-10.07,9.939-10.07
	c5.619,0,10.088,4.461,10.088,10.07c0,2.59-1.012,5.32-2.164,7.77c-0.576,1.148-0.863,2.301-0.863,3.598
	c0,3.883,2.74,8.914,6.771,9.633c11.668,3.164,21.031,17.266,26.508,27.047c2.016,3.594,3.023,7.766,3.023,11.938v19.133
	c0,1.871-1.584,3.457-3.455,3.457c-2.016,0-3.6-1.586-3.6-3.457v-12.656c0-5.613-2.309-10.934-6.34-14.82l-8.934-8.629
	c-0.432-0.285-0.863-0.574-1.439-0.574c-1.008,0-1.875,0.719-2.02,1.723c-3.313,16.258-1.873,33.09,4.18,48.914l24.492,51.211
	c0.287,0.719,0.432,1.582,0.432,2.445c0,2.445-1.439,4.461-3.893,5.324l-12.818,4.027c-1.01,0.289-2.16-0.578-2.16-1.586
	c0-0.574,0.287-1.148,0.719-1.434l5.186-3.742c0.863-0.719,1.439-1.582,1.439-2.734c0-0.719-0.145-1.148-0.576-1.723l-22.041-35.102
	c-2.879-4.461-4.898-9.063-6.195-14.246l-36.305,58.84c-0.719,1.148-1.871,1.871-3.168,1.871c-1.15,0-2.16-0.434-2.883-1.297
	l-10.66-12.086c-0.289-0.285-0.432-0.719-0.432-1.145c0-0.867,0.719-1.586,1.727-1.586c0.145,0,0.434,0,0.576,0.145l5.477,2.012
	c0.576,0.289,0.721,0.289,1.297,0.289c1.295,0,2.447-0.723,3.027-1.867l3.455-6.191l15.85-36.535
	c6.336-15.105,7.348-31.648,3.168-47.328c-0.145-0.574-0.576-1.008-1.152-1.008c-0.432,0-0.721,0.289-1.008,0.578
	c-8.934,11.219-21.18,17.836-35.441,18.988c-1.584,0-3.023-1.297-3.023-2.734c0-1.152,0.863-2.305,2.016-2.59
	c15.412-4.461,27.229-16.688,31.117-32.227l1.152-3.594c0.432-1.727,2.02-2.879,3.891-2.879c4.752-0.141,8.932-3.164,9.939-8.055
	c0.576-3.738,0.576-4.027,0.576-4.027c0-0.863-0.719-1.582-1.727-1.582c0,0-0.289,0-0.865,0.145h-0.432
	c-1.299,0-2.451-1.152-2.451-2.445V252.75"/>
	<path fill-rule="evenodd" clip-rule="evenodd" fill="#ED1C24" d="M89.639,42.004c10.805,0,15.703,13.234,8.787,20.426
	c-0.863,0.867-1.295,1.871-1.295,3.164c0,1.875,1.152,3.598,3.023,4.172l10.516,4.031c2.164,0.863,3.893,2.441,4.756,4.602
	l10.949,25.895c1.008,2.59,1.008,5.465-0.145,8.055l-9.363,21.004c-0.289,0.574-0.289,1.297,0,1.867l2.16,5.469
	c0.867,2.156-1.441,4.027-3.313,3.164c-0.863-0.289-1.439-0.863-1.873-1.723l-3.172-5.758c-0.576-1.008-0.719-2.301-0.287-3.309
	l7.637-23.016c0.287-1.008,0.143-2.16-0.289-3.164l-6.623-13.379c-1.156-2.156-4.613-1.586-4.756,0.863l-2.16,28.34l6.191,75.664
	c0.145,0.863,0.58,1.727,1.443,2.016l6.049,3.02c0.863,0.434,1.439,1.297,1.439,2.156c0,1.441-1.152,2.594-2.592,2.594h-0.287h0.143
	l-16.568-1.871c-1.15-0.145-2.016-1.148-2.158-2.301l-8.213-62.289l-8.068,62.289c-0.145,1.152-1.008,2.156-2.16,2.301
	c-16.568,1.871-16.711,1.871-16.711,1.871c-1.441,0-2.592-1.152-2.592-2.594c0-0.859,0.574-1.723,1.439-2.156l6.051-3.02
	c0.865-0.289,1.297-1.152,1.441-2.016l6.195-75.664l-2.164-28.34c-0.145-2.449-3.6-3.02-4.752-0.863l-6.627,13.379
	c-0.434,1.004-0.576,2.156-0.289,3.164l7.637,23.016c0.432,1.008,0.287,2.301-0.289,3.309l-3.172,5.758
	c-0.432,0.859-1.008,1.434-1.871,1.723c-2.16,1.008-4.176-1.297-3.313-3.164l2.16-5.469c0.287-0.57,0.287-1.293,0-1.867
	l-9.363-21.004c-1.152-2.59-1.152-5.465-0.145-8.055l10.947-25.895c0.865-2.16,2.453-3.738,4.756-4.602l10.516-4.031
	c1.873-0.574,3.025-2.297,3.025-4.172c0-1.293-0.432-2.297-1.297-3.164C74.078,55.238,78.979,42.004,89.639,42.004"/>
	<g>
</g>
	<g>
</g>
	<g>
</g>
	<g>
</g>
	<g>
</g>
	<g>
</g>
</svg>