<?xml version="1.0" encoding="iso-8859-1"?>
<!-- Uploaded to: SVG Repo, www.svgrepo.com, Generator: SVG Repo Mixer Tools -->
<svg height="800px" width="800px" version="1.1" id="Capa_1" xmlns="http://www.w3.org/2000/svg" xmlns:xlink="http://www.w3.org/1999/xlink" 
	 viewBox="0 0 61.723 61.723" xml:space="preserve">
<g>
	<g>
		<path style="fill:#010002;" d="M15.972,10.035c2.766-0.313,4.748-2.81,4.433-5.571c-0.317-2.764-2.813-4.748-5.573-4.431
			c-2.764,0.317-4.746,2.813-4.433,5.575C10.717,8.37,13.212,10.354,15.972,10.035z"/>
		<path style="fill:#010002;" d="M33.031,25.669c-0.104-0.358-0.244-0.721-0.434-1.087c-1.37-2.669-2.802-5.309-4.266-7.931
			c1.551,0.12,3.102,0.24,4.654,0.361c1.062,2.099,2.123,4.197,3.186,6.297c1.711,3.38,6.775,0.407,5.07-2.963
			c-1.368-2.709-2.99-8.799-6.528-9.073c-3.762-0.293-7.525-0.584-11.288-0.876c-0.09-0.007-0.168,0.006-0.255,0.005
			c-2.857-0.767-6.208,1.262-6.791,4.184c-1.923,4.15-4.689,7.385-9.313,8.737c-3.628,1.061-2.083,6.73,1.561,5.663
			c4.581-1.34,7.871-3.965,10.367-7.421c1.511,2.693,2.986,5.407,4.4,8.153c-3.109,2.144-5.826,4.739-8.206,7.729
			c-0.664,0.836-0.777,1.693-0.554,2.449c-0.008,0.278,0.009,0.57,0.09,0.89c0.916,3.622,1.831,7.246,2.748,10.868
			c0.972,3.861,7.082,2.759,6.101-1.125c-0.872-3.449-1.745-6.9-2.617-10.354c2.187-2.577,4.765-4.821,7.71-6.493
			c0.694-0.396,1.13-0.938,1.373-1.537c4.031,6.176,8.062,14.717,12.089,19.896c2.456,3.154,7.373-0.629,4.908-3.794
			C41.046,39.3,34.19,27.646,33.031,25.669z"/>
		<path style="fill:#010002;" d="M12.948,40.312c-0.2-0.908-0.091-1.83,0.3-2.69H6.806v24.101h7.635v-15.01l-1.337-5.288
			C13.01,41.057,12.958,40.682,12.948,40.312z"/>
		<path style="fill:#010002;" d="M22.976,40.843l2.391,9.462c0.362,1.436,0.102,2.814-0.735,3.889
			c-0.892,1.146-2.367,1.828-3.946,1.828c-0.067,0-0.134-0.004-0.202-0.008v5.709h7.635V37.621h-1.734
			C25.193,38.574,24.052,39.648,22.976,40.843z"/>
		<path style="fill:#010002;" d="M40.822,53.326c-1.818-2.34-3.633-5.33-5.412-8.434V61.72h7.635v-6.775
			C42.194,54.652,41.429,54.105,40.822,53.326z"/>
		<path style="fill:#010002;" d="M49.089,37.62L49.089,37.62v10.696c0.604,1.267,0.622,2.685,0,3.966v9.438h7.636v-24.1H49.089z"/>
	</g>
</g>
</svg>